<svg xmlns="http://www.w3.org/2000/svg" xmlns:xlink="http://www.w3.org/1999/xlink" version="1.1" id="Layer_1" x="0px" y="0px" style="enable-background:new 0 0 600 600;" xml:space="preserve" viewBox="115 256.3 370 87.4">
<g>
	<g>
		<polygon fill="#5C2D90" points="258.6,294.7 235.9,294.7 235.9,269.7 220.9,269.7 220.9,331.5 235.9,331.5 235.9,306.9 258.6,306.9     258.6,331.5 273.5,331.5 273.5,269.7 258.6,269.7   "/>
		<path fill="#5C2D90" d="M322.8,296.1c-1.5-4.3-3.8-7.5-7-9.7c-3.2-2.2-7.4-3.3-12.6-3.3c-7.5,0-13.3,2.2-17.4,6.7    c-4,4.5-6.1,10.8-6.1,18.9c0,5,1,9.3,3,12.9c2,3.6,4.8,6.4,8.4,8.3c3.6,1.9,7.8,2.9,12.5,2.9c3.6,0,6.8-0.3,9.6-0.9    c2.7-0.6,5.2-1.3,7.5-2.3v-11.9c-1.1,0.4-2.3,0.9-3.8,1.5s-3.1,1-4.8,1.4c-1.7,0.4-3.4,0.6-5.1,0.6c-4.7,0-8.1-1.2-10.2-3.6    c-1.4-1.6-2.3-3.6-2.8-6.1h30.9C325,305.5,324.3,300.3,322.8,296.1z M298,294.9c1.4-0.9,2.9-1.3,4.7-1.3c3.1,0,5.3,1,6.7,3.1    c0.9,1.4,1.5,3.5,1.9,6.2h-17.3c0.2-1.4,0.5-2.6,0.9-3.7C295.6,297.2,296.6,295.7,298,294.9z"/>
		<path fill="#5C2D90" d="M368.4,287.8c-1.5-1.2-3.2-2.2-5-2.8c-1.8-0.6-3.6-1.1-5.4-1.3c-1.8-0.2-3.4-0.4-4.9-0.4    c-4.2,0-8,0.4-11.3,1.3c-3.4,0.9-5.9,1.8-7.5,2.8v12.2c1.7-1.4,4-2.5,6.7-3.5c2.7-1,5.5-1.4,8.2-1.4c3.3,0,5.9,0.6,7.7,1.9    c1.8,1.3,2.7,3.3,2.7,6.2v3c-0.4-0.3-0.9-0.5-1.4-0.8c-1.6-0.7-3.4-1.3-5.3-1.8c-2-0.4-4-0.6-6.1-0.6c-3.8,0-6.9,0.6-9.4,1.8    c-2.5,1.2-4.3,2.8-5.5,5c-1.2,2.2-1.8,4.7-1.8,7.6c0,3.1,0.5,5.7,1.6,7.7c1,2.1,2.5,3.7,4.4,4.9c1.9,1.2,4.1,2.1,6.6,2.6    c2.5,0.5,5.2,0.8,8,0.8c4.8,0,8.8-0.4,12.2-1.1c3.4-0.7,5.9-1.9,7.7-3.6c1.8-1.6,2.7-3.8,2.7-6.4l0.1-22.1c0-2.8-0.5-5.2-1.4-7.1    C371.2,290.6,369.9,289,368.4,287.8z M357.9,322.5c-1.3,0.4-3.5,0.6-6.6,0.6c-1.2,0-2.4-0.2-3.6-0.7c-1.1-0.5-2.1-1.2-2.7-2.1    c-0.7-0.9-1-2-1-3.1c0-1.9,0.7-3.3,2.1-4.2c1.4-0.9,3.6-1.3,6.6-1.3c2,0,3.8,0.2,5.6,0.6c0.6,0.1,1.1,0.3,1.6,0.5v7.2    C359.8,321.2,359.1,322.1,357.9,322.5z"/>
		<rect x="382" y="266.9" fill="#5C2D90" width="13.7" height="64.6"/>
		<path fill="#5C2D90" d="M423.6,271.7h-14.5v12.9h-6.9v10.6h6.9v23.4c0,4.7,1.3,8.3,4,10.9c2.7,2.6,6.7,3.8,12.1,3.8    c1.4,0,2.9-0.1,4.4-0.4c1.5-0.3,2.9-0.8,4.2-1.4v-11.9c-0.7,0.6-1.7,1-2.8,1.4c-1.1,0.4-2.1,0.6-3.1,0.6c-1.6,0-2.7-0.4-3.4-1.2    c-0.7-0.8-1-2-1-3.6v-21.7h10.3v-10.6h-10.3V271.7z"/>
		<path fill="#5C2D90" d="M482.8,290.4c-1.5-2.5-3.5-4.3-6.1-5.4c-2.6-1.1-5.6-1.7-9-1.7c-3.5,0-7,0.7-10.3,2.1c-1,0.4-2,0.9-2.9,1.4    v-20.7h-13.9v65.4h13.7l0.2-34.6c0.8-0.6,1.9-1.1,3.4-1.5c1.5-0.4,2.9-0.6,4.4-0.6c2.9,0,5.1,0.7,6.6,2.1c1.5,1.4,2.3,3.6,2.3,6.7    v27.9H485v-30.8C485,296.3,484.3,292.9,482.8,290.4z"/>
	</g>
	<path fill="#1E4FA1" d="M158.7,256.3c-24.2,0-43.7,19.6-43.7,43.7c0,24.2,19.6,43.7,43.7,43.7s43.7-19.6,43.7-43.7   C202.5,275.8,182.9,256.3,158.7,256.3z M179.7,301.5c2.8,1.4,5,3.3,5.8,6.4c1.4,5,0.2,11.3-7.1,14.2c-2.8,1.1-5.8,1.8-8.8,1.9   c-4.8,0.2-9.6,0.2-14.5,0.3c-0.1,0-0.2,0-0.3,0c0-3.6,0-7.1,0-10.7c5.6,0,11.2,0,16.8,0c0-2.8,0-5.4,0-8.2c-5.6,0-11.1,0-16.8,0   c0-3.7,0-7.4,0-11.1c6.2,0,12.3,0,18.5,0c0-2.9,0-5.8,0-8.7c-9.4,0-18.9,0-28.5,0c0,12.9,0,25.7,0,38.6c-3.7,0-7.2,0-10.9,0   c0-16.2,0-32.3,0-48.6c0.2,0,0.5,0,0.8,0c10,0,20,0,30.1,0c4.6,0,9.1,0.5,13.4,2.2c2,0.8,3.7,1.9,5.1,3.5c3.3,3.7,4,10.8-1.8,15.3   c-1.7,1.3-3.6,2.2-5.6,2.9c-0.1,0-0.2,0.1-0.4,0.1c0,0-0.1,0.1-0.1,0.1C177,300.3,178.4,300.8,179.7,301.5z"/>
</g>
</svg>
